# xmcd
#
# Track frame offsets: 
#        150
#        743
#        13469
#        16870
#        28213
#        29454
#        52807
#        73244
#        98306
#        134327
#        172077
#        224124
#        255729
#        285993
#
# Disc length: 4116 seconds
#
# Revision: 1
# Processed by: cddbd v1.5.2PL0 Copyright (c) Steve Scherf et al.
# Submitted via: ExactAudioCopyFreeDBPlugin 1.0
#
DISCID=c510120e
DTITLE=freddie king - live at the electric ballroom, 1974 (US 2006 DK 
DTITLE=97642)
DYEAR=1996
DGENRE=Blues
TTITLE0=Introduction
TTITLE1=That's Alright (Solo Acoustic)
TTITLE2=Interview
TTITLE3=Dust My Broom (Solo Acoustic)
TTITLE4=Interview
TTITLE5=Big Legged Woman
TTITLE6=Woman Across The River
TTITLE7=Key To The Highway
TTITLE8=Let The Good Times Roll
TTITLE9=Ain't Nobody's Business
TTITLE10=Sweet Home Chicago
TTITLE11=Dust My Broom
TTITLE12=Hide Away Medley
TTITLE13=Interview
EXTD=YEAR: 1974
EXTT0=
EXTT1=
EXTT2=
EXTT3=
EXTT4=
EXTT5=
EXTT6=
EXTT7=
EXTT8=
EXTT9=
EXTT10=
EXTT11=
EXTT12=
EXTT13=
PLAYORDER=
